<svg width="32.000000" height="30.000000" viewBox="0 0 32 30" fill="none" xmlns="http://www.w3.org/2000/svg" xmlns:xlink="http://www.w3.org/1999/xlink">
	<desc>
			Created with Pixso.
	</desc>
	<defs/>
	<path id="Vector" d="M31.27 2.84C27.4 2.84 21.93 3.16 19.13 5.96C17.92 7.17 17.32 9.14 17.47 11.37C17.49 11.67 17.69 11.92 17.97 12.01C18.25 12.1 18.56 12.02 18.75 11.79C20.31 9.96 22.24 8.5 24.5 7.44C24.69 7.34 24.92 7.34 25.12 7.41C25.31 7.47 25.45 7.6 25.52 7.76C25.68 8.08 25.63 8.51 25.12 8.75C25.09 8.77 25.06 8.79 25.03 8.8C25.02 8.8 25.01 8.8 25 8.81C19.43 11.42 16.69 15.99 15.45 20.69C14.54 14.81 12.62 11.35 10.82 9.22C9.51 7.52 8.22 6.62 7.47 6.11C7.34 6.02 6.92 5.74 6.75 5.56C6.46 5.28 6.46 4.82 6.75 4.54C7.03 4.25 7.49 4.25 7.81 4.57C7.88 4.64 8.01 4.72 8.16 4.83L8.29 4.91C9.35 5.64 11.31 6.97 13.04 9.86C13.2 10.11 13.5 10.25 13.79 10.2C14.09 10.14 14.32 9.91 14.38 9.62C14.76 7.68 14.59 4.81 12.86 3.08C10.06 0.29 4.59 -0.04 0.72 -0.04C0.32 -0.04 0 0.29 0 0.69C0 4.56 0.32 10.03 3.11 12.83C4.28 14 6.08 14.52 7.86 14.52C9.32 14.52 10.75 14.15 11.84 13.52C13.33 16.61 14.53 21.23 14.53 28.3C14.53 28.7 14.85 29.03 15.25 29.03C15.65 29.03 15.98 28.7 15.98 28.3C15.98 24.36 16.66 19.63 19.17 15.73C20.18 16.72 21.91 17.34 23.83 17.4C23.93 17.4 24.02 17.4 24.11 17.4C26.07 17.4 27.79 16.79 28.88 15.7C31.67 12.91 32 7.44 32 3.56C32 3.16 31.67 2.84 31.27 2.84Z" fill="#00B307" fill-opacity="1.000000" fill-rule="nonzero"/>
</svg>
