<svg width="16.000000" height="19.000000" viewBox="0 0 16 19" fill="none" xmlns="http://www.w3.org/2000/svg" xmlns:xlink="http://www.w3.org/1999/xlink">
	<desc>
			Created with Pixso.
	</desc>
	<defs/>
	<path id="Vector" d="M7.5 18C7.5 18 0 13.09 0 7.36C0 5.41 0.79 3.53 2.19 2.15C3.6 0.77 5.51 0 7.5 0C9.48 0 11.39 0.77 12.8 2.15C14.2 3.53 15 5.41 15 7.36C15 13.09 7.5 18 7.5 18Z" stroke="#666666" stroke-opacity="1.000000" stroke-width="1.000000" stroke-linejoin="round"/>
	<path id="Vector" d="M7.5 9.81C6.11 9.81 5 8.71 5 7.36C5 6 6.11 4.9 7.5 4.9C8.88 4.9 10 6 10 7.36C10 8.71 8.88 9.81 7.5 9.81Z" stroke="#666666" stroke-opacity="1.000000" stroke-width="1.000000" stroke-linejoin="round"/>
</svg>
