<svg width="22.000000" height="22.000000" viewBox="0 0 22 22" fill="none" xmlns="http://www.w3.org/2000/svg" xmlns:xlink="http://www.w3.org/1999/xlink">
	<desc>
			Created with Pixso.
	</desc>
	<defs/>
	<path id="Vector" d="M13.43 1.37C14.91 1.77 16.27 2.55 17.35 3.64C18.44 4.72 19.22 6.08 19.62 7.56" stroke="#1A1A1A" stroke-opacity="1.000000" stroke-width="1.500000" stroke-linejoin="round" stroke-linecap="round"/>
	<path id="Vector" d="M12.53 4.75C13.42 4.99 14.23 5.46 14.88 6.11C15.53 6.76 16 7.57 16.24 8.46" stroke="#1A1A1A" stroke-opacity="1.000000" stroke-width="1.500000" stroke-linejoin="round" stroke-linecap="round"/>
	<path id="Vector" d="M10.38 14.9C10.52 14.96 10.67 14.99 10.82 14.98C10.97 14.97 11.11 14.92 11.24 14.83L13.98 13.01C14.1 12.93 14.24 12.88 14.38 12.86C14.53 12.85 14.67 12.87 14.81 12.93L19.93 15.13C20.1 15.2 20.25 15.33 20.34 15.49C20.44 15.66 20.48 15.85 20.45 16.04C20.29 17.3 19.67 18.47 18.71 19.31C17.76 20.15 16.52 20.62 15.25 20.62C11.3 20.62 7.52 19.05 4.73 16.26C1.94 13.47 0.37 9.69 0.37 5.75C0.37 4.47 0.84 3.23 1.68 2.28C2.52 1.32 3.69 0.7 4.95 0.54C5.14 0.51 5.33 0.55 5.5 0.65C5.66 0.74 5.79 0.89 5.86 1.06L8.06 6.19C8.12 6.32 8.14 6.47 8.13 6.61C8.11 6.75 8.07 6.89 7.99 7.01L6.17 9.79C6.09 9.92 6.04 10.06 6.03 10.21C6.02 10.36 6.04 10.51 6.11 10.65C7.02 12.5 8.52 14 10.38 14.9Z" stroke="#1A1A1A" stroke-opacity="1.000000" stroke-width="1.500000" stroke-linejoin="round"/>
</svg>
