<svg width="15.000000" height="14.000000" viewBox="0 0 15 14" fill="none" xmlns="http://www.w3.org/2000/svg" xmlns:xlink="http://www.w3.org/1999/xlink">
	<desc>
			Created with Pixso.
	</desc>
	<defs/>
	<path id="Vector" d="M7.31 11.41L10.85 13.65C11.31 13.94 11.87 13.51 11.73 12.98L10.71 8.95C10.68 8.84 10.68 8.72 10.72 8.61C10.75 8.5 10.82 8.4 10.91 8.33L14.09 5.68C14.51 5.33 14.29 4.64 13.75 4.61L9.6 4.34C9.49 4.33 9.38 4.29 9.29 4.22C9.2 4.16 9.13 4.06 9.09 3.96L7.54 0.06C7.5 -0.05 7.42 -0.15 7.33 -0.21C7.23 -0.28 7.11 -0.32 7 -0.32C6.88 -0.32 6.76 -0.28 6.66 -0.21C6.57 -0.15 6.49 -0.05 6.45 0.06L4.9 3.96C4.86 4.06 4.79 4.16 4.7 4.22C4.61 4.29 4.5 4.33 4.39 4.34L0.24 4.61C-0.3 4.64 -0.52 5.33 -0.1 5.68L3.08 8.33C3.17 8.4 3.24 8.5 3.27 8.61C3.31 8.72 3.31 8.84 3.28 8.95L2.33 12.69C2.17 13.33 2.85 13.84 3.39 13.49L6.69 11.41C6.78 11.35 6.89 11.32 7 11.32C7.11 11.32 7.21 11.35 7.31 11.41L7.31 11.41Z" fill="#CCCCCC" fill-opacity="1.000000" fill-rule="nonzero"/>
</svg>
